<svg width="48" height="48" viewBox="0 0 48 48" fill="none" xmlns="http://www.w3.org/2000/svg">
<path d="M16 36C13.8 36 12.02 37.8 12.02 40C12.02 42.2 13.8 44 16 44C18.2 44 20 42.2 20 40C20 37.8 18.2 36 16 36ZM4 4V8H8L15.2 23.18L12.5 28.08C12.18 28.64 12 29.3 12 30C12 32.2 13.8 34 16 34H40V30H16.84C16.56 30 16.34 29.78 16.34 29.5L16.4 29.26L18.2 26H33.1C34.6 26 35.92 25.18 36.6 23.94L43.76 10.96C43.92 10.68 44 10.34 44 10C44 8.9 43.1 8 42 8H12.42L10.54 4H4ZM36 36C33.8 36 32.02 37.8 32.02 40C32.02 42.2 33.8 44 36 44C38.2 44 40 42.2 40 40C40 37.8 38.2 36 36 36Z" fill="#2B3665"/>
</svg>
